<mxfile host="app.diagrams.net" modified="2023-07-09T10:54:38.353Z" agent="Mozilla/5.0 (Windows NT 10.0; Win64; x64; rv:109.0) Gecko/20100101 Firefox/115.0" etag="7dMTOwdHotoZWQlKKJdm" version="21.6.1" type="github" pages="6">
  <diagram name="firstconcept" id="NC9qcz4-eBQ9Rwnnfbnd">
    <mxGraphModel dx="794" dy="547" grid="0" gridSize="10" guides="1" tooltips="1" connect="1" arrows="1" fold="1" page="1" pageScale="1" pageWidth="1169" pageHeight="827" math="0" shadow="0">
      <root>
        <mxCell id="0" />
        <mxCell id="1" parent="0" />
        <mxCell id="cakx6Usz5pf70pmhopvP-1" value="User (Lobbyfernseher)" style="shape=umlActor;verticalLabelPosition=bottom;verticalAlign=top;html=1;" parent="1" vertex="1">
          <mxGeometry x="303" y="25" width="30" height="60" as="geometry" />
        </mxCell>
        <mxCell id="cakx6Usz5pf70pmhopvP-4" style="edgeStyle=orthogonalEdgeStyle;rounded=0;orthogonalLoop=1;jettySize=auto;html=1;exitX=0.5;exitY=0;exitDx=0;exitDy=0;" parent="1" source="cakx6Usz5pf70pmhopvP-3" edge="1">
          <mxGeometry relative="1" as="geometry">
            <mxPoint x="318.1428571428571" y="114.42857142857144" as="targetPoint" />
          </mxGeometry>
        </mxCell>
        <mxCell id="cakx6Usz5pf70pmhopvP-3" value="Slider / client&lt;br&gt;(HTML, CSS, JS)" style="rounded=0;whiteSpace=wrap;html=1;" parent="1" vertex="1">
          <mxGeometry x="258" y="162" width="120" height="60" as="geometry" />
        </mxCell>
        <mxCell id="cakx6Usz5pf70pmhopvP-6" style="edgeStyle=orthogonalEdgeStyle;rounded=0;orthogonalLoop=1;jettySize=auto;html=1;exitX=0;exitY=0.5;exitDx=0;exitDy=0;entryX=1;entryY=0.5;entryDx=0;entryDy=0;" parent="1" source="cakx6Usz5pf70pmhopvP-5" target="cakx6Usz5pf70pmhopvP-3" edge="1">
          <mxGeometry relative="1" as="geometry" />
        </mxCell>
        <mxCell id="cakx6Usz5pf70pmhopvP-5" value="RSS-Feed-Provider" style="rounded=0;whiteSpace=wrap;html=1;" parent="1" vertex="1">
          <mxGeometry x="512" y="162" width="120" height="60" as="geometry" />
        </mxCell>
        <mxCell id="cakx6Usz5pf70pmhopvP-35" value="hosts" style="edgeStyle=orthogonalEdgeStyle;rounded=0;orthogonalLoop=1;jettySize=auto;html=1;exitX=0.5;exitY=0;exitDx=0;exitDy=0;entryX=0.5;entryY=0;entryDx=0;entryDy=0;" parent="1" source="cakx6Usz5pf70pmhopvP-7" target="cakx6Usz5pf70pmhopvP-14" edge="1">
          <mxGeometry relative="1" as="geometry" />
        </mxCell>
        <mxCell id="cakx6Usz5pf70pmhopvP-7" value="Server (Raspi)" style="swimlane;whiteSpace=wrap;html=1;" parent="1" vertex="1">
          <mxGeometry x="243" y="284" width="321" height="255" as="geometry">
            <mxRectangle x="19" y="283" width="72" height="26" as="alternateBounds" />
          </mxGeometry>
        </mxCell>
        <mxCell id="cakx6Usz5pf70pmhopvP-10" value="/media" style="swimlane;fontStyle=0;childLayout=stackLayout;horizontal=1;startSize=30;horizontalStack=0;resizeParent=1;resizeParentMax=0;resizeLast=0;collapsible=1;marginBottom=0;whiteSpace=wrap;html=1;" parent="cakx6Usz5pf70pmhopvP-7" vertex="1">
          <mxGeometry x="6" y="114" width="83" height="90" as="geometry" />
        </mxCell>
        <mxCell id="cakx6Usz5pf70pmhopvP-11" value="img" style="text;strokeColor=none;fillColor=none;align=left;verticalAlign=middle;spacingLeft=4;spacingRight=4;overflow=hidden;points=[[0,0.5],[1,0.5]];portConstraint=eastwest;rotatable=0;whiteSpace=wrap;html=1;" parent="cakx6Usz5pf70pmhopvP-10" vertex="1">
          <mxGeometry y="30" width="83" height="30" as="geometry" />
        </mxCell>
        <mxCell id="cakx6Usz5pf70pmhopvP-12" value="vid" style="text;strokeColor=none;fillColor=none;align=left;verticalAlign=middle;spacingLeft=4;spacingRight=4;overflow=hidden;points=[[0,0.5],[1,0.5]];portConstraint=eastwest;rotatable=0;whiteSpace=wrap;html=1;" parent="cakx6Usz5pf70pmhopvP-10" vertex="1">
          <mxGeometry y="60" width="83" height="30" as="geometry" />
        </mxCell>
        <mxCell id="cakx6Usz5pf70pmhopvP-23" value="config (.txt/.json/...)&lt;br&gt;for the slider" style="rounded=0;whiteSpace=wrap;html=1;strokeColor=default;" parent="cakx6Usz5pf70pmhopvP-7" vertex="1">
          <mxGeometry x="35" y="33" width="120" height="60" as="geometry" />
        </mxCell>
        <mxCell id="cakx6Usz5pf70pmhopvP-9" style="edgeStyle=orthogonalEdgeStyle;rounded=0;orthogonalLoop=1;jettySize=auto;html=1;exitX=0.5;exitY=0;exitDx=0;exitDy=0;entryX=0.47;entryY=1.015;entryDx=0;entryDy=0;entryPerimeter=0;" parent="1" source="cakx6Usz5pf70pmhopvP-10" target="cakx6Usz5pf70pmhopvP-3" edge="1">
          <mxGeometry relative="1" as="geometry">
            <mxPoint x="318.0000000000001" y="312" as="sourcePoint" />
            <mxPoint x="264" y="222" as="targetPoint" />
            <Array as="points">
              <mxPoint x="291" y="384" />
              <mxPoint x="264" y="384" />
              <mxPoint x="264" y="242" />
              <mxPoint x="314" y="242" />
            </Array>
          </mxGeometry>
        </mxCell>
        <mxCell id="cakx6Usz5pf70pmhopvP-14" value="admin-client" style="swimlane;whiteSpace=wrap;html=1;" parent="1" vertex="1">
          <mxGeometry x="607" y="284" width="327" height="256" as="geometry">
            <mxRectangle x="383" y="283" width="106" height="26" as="alternateBounds" />
          </mxGeometry>
        </mxCell>
        <mxCell id="cakx6Usz5pf70pmhopvP-29" style="edgeStyle=orthogonalEdgeStyle;rounded=0;orthogonalLoop=1;jettySize=auto;html=1;exitX=0;exitY=0.5;exitDx=0;exitDy=0;entryX=1;entryY=0.5;entryDx=0;entryDy=0;" parent="cakx6Usz5pf70pmhopvP-14" source="cakx6Usz5pf70pmhopvP-21" target="cakx6Usz5pf70pmhopvP-27" edge="1">
          <mxGeometry relative="1" as="geometry" />
        </mxCell>
        <mxCell id="cakx6Usz5pf70pmhopvP-21" value="uploadMedia" style="rounded=0;whiteSpace=wrap;html=1;" parent="cakx6Usz5pf70pmhopvP-14" vertex="1">
          <mxGeometry x="187" y="98" width="87" height="60" as="geometry" />
        </mxCell>
        <mxCell id="cakx6Usz5pf70pmhopvP-25" value="config" style="rounded=0;whiteSpace=wrap;html=1;strokeColor=default;" parent="cakx6Usz5pf70pmhopvP-14" vertex="1">
          <mxGeometry x="187" y="27" width="88" height="60" as="geometry" />
        </mxCell>
        <mxCell id="cakx6Usz5pf70pmhopvP-27" value="&lt;b&gt;mode:&lt;/b&gt;&lt;br&gt;- overwrite&lt;br&gt;- add&lt;br&gt;&lt;b&gt;Array of the uploadmedia&lt;/b&gt;" style="shape=hexagon;perimeter=hexagonPerimeter2;whiteSpace=wrap;html=1;fixedSize=1;strokeColor=default;" parent="cakx6Usz5pf70pmhopvP-14" vertex="1">
          <mxGeometry x="12" y="81.5" width="120" height="92.5" as="geometry" />
        </mxCell>
        <mxCell id="1-5nYtZt-bIs5CyQ7soP-2" style="edgeStyle=orthogonalEdgeStyle;rounded=0;orthogonalLoop=1;jettySize=auto;html=1;exitX=0.5;exitY=1;exitDx=0;exitDy=0;entryX=1;entryY=0.5;entryDx=0;entryDy=0;" parent="cakx6Usz5pf70pmhopvP-14" source="cakx6Usz5pf70pmhopvP-14" target="cakx6Usz5pf70pmhopvP-21" edge="1">
          <mxGeometry relative="1" as="geometry">
            <Array as="points">
              <mxPoint x="164" y="204" />
              <mxPoint x="294" y="204" />
              <mxPoint x="294" y="128" />
            </Array>
          </mxGeometry>
        </mxCell>
        <mxCell id="1-5nYtZt-bIs5CyQ7soP-3" style="edgeStyle=orthogonalEdgeStyle;rounded=0;orthogonalLoop=1;jettySize=auto;html=1;exitX=0.5;exitY=1;exitDx=0;exitDy=0;entryX=1;entryY=0.5;entryDx=0;entryDy=0;" parent="cakx6Usz5pf70pmhopvP-14" source="cakx6Usz5pf70pmhopvP-14" target="cakx6Usz5pf70pmhopvP-25" edge="1">
          <mxGeometry relative="1" as="geometry">
            <Array as="points">
              <mxPoint x="164" y="203" />
              <mxPoint x="295" y="203" />
              <mxPoint x="295" y="57" />
            </Array>
          </mxGeometry>
        </mxCell>
        <mxCell id="1-5nYtZt-bIs5CyQ7soP-1" style="edgeStyle=orthogonalEdgeStyle;rounded=0;orthogonalLoop=1;jettySize=auto;html=1;exitX=0.5;exitY=0;exitDx=0;exitDy=0;exitPerimeter=0;entryX=0.5;entryY=1;entryDx=0;entryDy=0;" parent="1" source="cakx6Usz5pf70pmhopvP-15" target="cakx6Usz5pf70pmhopvP-14" edge="1">
          <mxGeometry relative="1" as="geometry" />
        </mxCell>
        <mxCell id="cakx6Usz5pf70pmhopvP-15" value="Admin" style="shape=umlActor;verticalLabelPosition=bottom;verticalAlign=top;html=1;outlineConnect=0;" parent="1" vertex="1">
          <mxGeometry x="755.5" y="584" width="30" height="60" as="geometry" />
        </mxCell>
        <mxCell id="cakx6Usz5pf70pmhopvP-24" style="edgeStyle=orthogonalEdgeStyle;rounded=0;orthogonalLoop=1;jettySize=auto;html=1;exitX=0.25;exitY=0;exitDx=0;exitDy=0;entryX=0.75;entryY=1;entryDx=0;entryDy=0;" parent="1" source="cakx6Usz5pf70pmhopvP-23" target="cakx6Usz5pf70pmhopvP-3" edge="1">
          <mxGeometry relative="1" as="geometry">
            <Array as="points">
              <mxPoint x="348" y="317" />
            </Array>
          </mxGeometry>
        </mxCell>
        <mxCell id="cakx6Usz5pf70pmhopvP-26" style="edgeStyle=orthogonalEdgeStyle;rounded=0;orthogonalLoop=1;jettySize=auto;html=1;exitX=0;exitY=0.5;exitDx=0;exitDy=0;" parent="1" source="cakx6Usz5pf70pmhopvP-25" edge="1">
          <mxGeometry relative="1" as="geometry">
            <mxPoint x="398.8888888888889" y="341.2222222222222" as="targetPoint" />
          </mxGeometry>
        </mxCell>
        <mxCell id="cakx6Usz5pf70pmhopvP-30" style="edgeStyle=orthogonalEdgeStyle;rounded=0;orthogonalLoop=1;jettySize=auto;html=1;exitX=0;exitY=0.5;exitDx=0;exitDy=0;entryX=1;entryY=0.5;entryDx=0;entryDy=0;" parent="1" source="cakx6Usz5pf70pmhopvP-27" target="cakx6Usz5pf70pmhopvP-11" edge="1">
          <mxGeometry relative="1" as="geometry" />
        </mxCell>
      </root>
    </mxGraphModel>
  </diagram>
  <diagram id="fn5CvZ-X4CRxfo9Dt6KN" name="mainconcept">
    <mxGraphModel dx="1134" dy="781" grid="0" gridSize="10" guides="1" tooltips="1" connect="1" arrows="1" fold="1" page="1" pageScale="1" pageWidth="1169" pageHeight="827" math="0" shadow="0">
      <root>
        <mxCell id="0" />
        <mxCell id="1" parent="0" />
        <mxCell id="VQ0S9H2RZAa2qH6vHvZ1-3" value="redirect" style="edgeStyle=orthogonalEdgeStyle;rounded=0;orthogonalLoop=1;jettySize=auto;html=1;exitX=1;exitY=0.5;exitDx=0;exitDy=0;entryX=0;entryY=0.5;entryDx=0;entryDy=0;" parent="1" source="VQ0S9H2RZAa2qH6vHvZ1-1" target="VQ0S9H2RZAa2qH6vHvZ1-2" edge="1">
          <mxGeometry relative="1" as="geometry" />
        </mxCell>
        <mxCell id="umDAyvMPifwkjuy2INvD-42" value="redirect, when already login" style="edgeStyle=orthogonalEdgeStyle;rounded=0;orthogonalLoop=1;jettySize=auto;html=1;exitX=0.5;exitY=1;exitDx=0;exitDy=0;entryX=0;entryY=0.25;entryDx=0;entryDy=0;dashed=1;fontSize=12;" parent="1" source="VQ0S9H2RZAa2qH6vHvZ1-1" target="VQ0S9H2RZAa2qH6vHvZ1-4" edge="1">
          <mxGeometry relative="1" as="geometry" />
        </mxCell>
        <mxCell id="VQ0S9H2RZAa2qH6vHvZ1-1" value="/" style="rounded=0;whiteSpace=wrap;html=1;" parent="1" vertex="1">
          <mxGeometry x="213" y="128" width="120" height="60" as="geometry" />
        </mxCell>
        <mxCell id="VQ0S9H2RZAa2qH6vHvZ1-5" value="succesful login" style="edgeStyle=orthogonalEdgeStyle;rounded=0;orthogonalLoop=1;jettySize=auto;html=1;" parent="1" source="VQ0S9H2RZAa2qH6vHvZ1-2" target="VQ0S9H2RZAa2qH6vHvZ1-4" edge="1">
          <mxGeometry relative="1" as="geometry">
            <Array as="points">
              <mxPoint x="537" y="244" />
              <mxPoint x="537" y="244" />
            </Array>
          </mxGeometry>
        </mxCell>
        <mxCell id="VQ0S9H2RZAa2qH6vHvZ1-33" style="edgeStyle=orthogonalEdgeStyle;rounded=0;orthogonalLoop=1;jettySize=auto;html=1;exitX=1;exitY=0.5;exitDx=0;exitDy=0;entryX=0;entryY=0.5;entryDx=0;entryDy=0;entryPerimeter=0;" parent="1" source="VQ0S9H2RZAa2qH6vHvZ1-2" target="VQ0S9H2RZAa2qH6vHvZ1-31" edge="1">
          <mxGeometry relative="1" as="geometry" />
        </mxCell>
        <mxCell id="hUyaMf82zWludLaC_aFj-2" style="edgeStyle=orthogonalEdgeStyle;rounded=0;orthogonalLoop=1;jettySize=auto;html=1;exitX=0.25;exitY=0;exitDx=0;exitDy=0;entryX=0.25;entryY=1;entryDx=0;entryDy=0;" parent="1" source="VQ0S9H2RZAa2qH6vHvZ1-2" target="hUyaMf82zWludLaC_aFj-1" edge="1">
          <mxGeometry relative="1" as="geometry" />
        </mxCell>
        <mxCell id="hUyaMf82zWludLaC_aFj-5" value="access per secret code" style="edgeLabel;html=1;align=center;verticalAlign=middle;resizable=0;points=[];" parent="hUyaMf82zWludLaC_aFj-2" vertex="1" connectable="0">
          <mxGeometry y="1" relative="1" as="geometry">
            <mxPoint as="offset" />
          </mxGeometry>
        </mxCell>
        <mxCell id="VQ0S9H2RZAa2qH6vHvZ1-2" value="/admin/login&lt;br&gt;- login.html" style="rounded=0;whiteSpace=wrap;html=1;" parent="1" vertex="1">
          <mxGeometry x="462" y="128" width="120" height="60" as="geometry" />
        </mxCell>
        <mxCell id="VQ0S9H2RZAa2qH6vHvZ1-10" style="edgeStyle=orthogonalEdgeStyle;rounded=0;orthogonalLoop=1;jettySize=auto;html=1;exitX=1;exitY=0.5;exitDx=0;exitDy=0;entryX=0;entryY=0.5;entryDx=0;entryDy=0;" parent="1" source="VQ0S9H2RZAa2qH6vHvZ1-4" target="VQ0S9H2RZAa2qH6vHvZ1-6" edge="1">
          <mxGeometry relative="1" as="geometry" />
        </mxCell>
        <mxCell id="VQ0S9H2RZAa2qH6vHvZ1-12" value="start of diashow" style="edgeStyle=orthogonalEdgeStyle;rounded=0;orthogonalLoop=1;jettySize=auto;html=1;" parent="1" source="VQ0S9H2RZAa2qH6vHvZ1-4" target="VQ0S9H2RZAa2qH6vHvZ1-11" edge="1">
          <mxGeometry relative="1" as="geometry" />
        </mxCell>
        <mxCell id="umDAyvMPifwkjuy2INvD-19" value="logout" style="edgeStyle=orthogonalEdgeStyle;rounded=0;orthogonalLoop=1;jettySize=auto;html=1;exitX=0;exitY=0;exitDx=0;exitDy=0;entryX=0;entryY=1;entryDx=0;entryDy=0;fontSize=12;" parent="1" source="VQ0S9H2RZAa2qH6vHvZ1-4" target="VQ0S9H2RZAa2qH6vHvZ1-2" edge="1">
          <mxGeometry relative="1" as="geometry" />
        </mxCell>
        <mxCell id="VQ0S9H2RZAa2qH6vHvZ1-4" value="/admin/panel&lt;br&gt;- adminpanel.html" style="whiteSpace=wrap;html=1;rounded=0;" parent="1" vertex="1">
          <mxGeometry x="462" y="268" width="120" height="60" as="geometry" />
        </mxCell>
        <mxCell id="VQ0S9H2RZAa2qH6vHvZ1-30" style="edgeStyle=orthogonalEdgeStyle;rounded=0;orthogonalLoop=1;jettySize=auto;html=1;exitX=0;exitY=0.75;exitDx=0;exitDy=0;entryX=1;entryY=0.75;entryDx=0;entryDy=0;" parent="1" source="VQ0S9H2RZAa2qH6vHvZ1-6" target="VQ0S9H2RZAa2qH6vHvZ1-4" edge="1">
          <mxGeometry relative="1" as="geometry" />
        </mxCell>
        <mxCell id="umDAyvMPifwkjuy2INvD-4" style="edgeStyle=orthogonalEdgeStyle;rounded=0;orthogonalLoop=1;jettySize=auto;html=1;exitX=0.5;exitY=1;exitDx=0;exitDy=0;entryX=0.5;entryY=0;entryDx=0;entryDy=0;shape=link;" parent="1" source="VQ0S9H2RZAa2qH6vHvZ1-6" target="umDAyvMPifwkjuy2INvD-3" edge="1">
          <mxGeometry relative="1" as="geometry" />
        </mxCell>
        <mxCell id="VQ0S9H2RZAa2qH6vHvZ1-6" value="/admin/panel/config&lt;br&gt;- config.html" style="rounded=0;whiteSpace=wrap;html=1;" parent="1" vertex="1">
          <mxGeometry x="645" y="268" width="120" height="60" as="geometry" />
        </mxCell>
        <mxCell id="umDAyvMPifwkjuy2INvD-2" value="when special key got pressed&lt;br&gt;=&amp;gt; end of diashow" style="edgeStyle=orthogonalEdgeStyle;rounded=0;orthogonalLoop=1;jettySize=auto;html=1;exitX=0;exitY=0.5;exitDx=0;exitDy=0;entryX=0;entryY=0.5;entryDx=0;entryDy=0;" parent="1" source="VQ0S9H2RZAa2qH6vHvZ1-11" target="VQ0S9H2RZAa2qH6vHvZ1-4" edge="1">
          <mxGeometry relative="1" as="geometry">
            <Array as="points">
              <mxPoint x="376" y="438" />
              <mxPoint x="376" y="298" />
            </Array>
          </mxGeometry>
        </mxCell>
        <mxCell id="VQ0S9H2RZAa2qH6vHvZ1-11" value="/slider&lt;br&gt;- slider.html" style="whiteSpace=wrap;html=1;rounded=0;" parent="1" vertex="1">
          <mxGeometry x="462" y="408" width="120" height="60" as="geometry" />
        </mxCell>
        <mxCell id="umDAyvMPifwkjuy2INvD-17" style="edgeStyle=orthogonalEdgeStyle;rounded=0;orthogonalLoop=1;jettySize=auto;html=1;exitX=0;exitY=0;exitDx=0;exitDy=52.5;exitPerimeter=0;entryX=1;entryY=0.75;entryDx=0;entryDy=0;fontSize=21;" parent="1" source="VQ0S9H2RZAa2qH6vHvZ1-31" target="VQ0S9H2RZAa2qH6vHvZ1-2" edge="1">
          <mxGeometry relative="1" as="geometry" />
        </mxCell>
        <mxCell id="VQ0S9H2RZAa2qH6vHvZ1-31" value="db&lt;br&gt;(SQLite3)" style="shape=cylinder3;whiteSpace=wrap;html=1;boundedLbl=1;backgroundOutline=1;size=15;" parent="1" vertex="1">
          <mxGeometry x="722" y="118" width="60" height="80" as="geometry" />
        </mxCell>
        <mxCell id="umDAyvMPifwkjuy2INvD-5" style="edgeStyle=orthogonalEdgeStyle;rounded=0;orthogonalLoop=1;jettySize=auto;html=1;exitX=0;exitY=0.5;exitDx=0;exitDy=0;entryX=1;entryY=0.5;entryDx=0;entryDy=0;shape=link;" parent="1" source="umDAyvMPifwkjuy2INvD-3" target="VQ0S9H2RZAa2qH6vHvZ1-11" edge="1">
          <mxGeometry relative="1" as="geometry" />
        </mxCell>
        <mxCell id="umDAyvMPifwkjuy2INvD-3" value="/uploads&lt;br&gt;- directory with images, videos,..." style="rounded=0;whiteSpace=wrap;html=1;" parent="1" vertex="1">
          <mxGeometry x="645" y="408" width="120" height="60" as="geometry" />
        </mxCell>
        <mxCell id="umDAyvMPifwkjuy2INvD-7" value="&lt;b&gt;&lt;font style=&quot;font-size: 21px;&quot;&gt;&lt;u&gt;Main Concept&lt;/u&gt;&lt;/font&gt;&lt;/b&gt;" style="text;html=1;strokeColor=none;fillColor=none;align=center;verticalAlign=middle;whiteSpace=wrap;rounded=0;" parent="1" vertex="1">
          <mxGeometry x="146" y="53" width="60" height="30" as="geometry" />
        </mxCell>
        <mxCell id="umDAyvMPifwkjuy2INvD-14" value="final product" style="shape=document;whiteSpace=wrap;html=1;boundedLbl=1;fontSize=21;" parent="1" vertex="1">
          <mxGeometry x="462" y="468" width="120" height="41" as="geometry" />
        </mxCell>
        <mxCell id="umDAyvMPifwkjuy2INvD-20" value="session" style="ellipse;whiteSpace=wrap;html=1;fontSize=12;" parent="1" vertex="1">
          <mxGeometry x="576" y="211" width="55" height="35" as="geometry" />
        </mxCell>
        <mxCell id="umDAyvMPifwkjuy2INvD-22" value="Actor" style="shape=umlActor;verticalLabelPosition=bottom;verticalAlign=top;html=1;outlineConnect=0;fontSize=12;" parent="1" vertex="1">
          <mxGeometry x="507" y="526" width="30" height="60" as="geometry" />
        </mxCell>
        <mxCell id="umDAyvMPifwkjuy2INvD-26" value="" style="shape=table;startSize=0;container=1;collapsible=0;childLayout=tableLayout;fontSize=12;" parent="1" vertex="1">
          <mxGeometry x="41" y="325" width="120" height="120" as="geometry" />
        </mxCell>
        <mxCell id="umDAyvMPifwkjuy2INvD-27" value="" style="shape=tableRow;horizontal=0;startSize=0;swimlaneHead=0;swimlaneBody=0;strokeColor=inherit;top=0;left=0;bottom=0;right=0;collapsible=0;dropTarget=0;fillColor=none;points=[[0,0.5],[1,0.5]];portConstraint=eastwest;fontSize=12;" parent="umDAyvMPifwkjuy2INvD-26" vertex="1">
          <mxGeometry width="120" height="40" as="geometry" />
        </mxCell>
        <mxCell id="umDAyvMPifwkjuy2INvD-28" value="Frontend" style="shape=partialRectangle;html=1;whiteSpace=wrap;connectable=0;strokeColor=inherit;overflow=hidden;fillColor=none;top=0;left=0;bottom=0;right=0;pointerEvents=1;fontSize=12;" parent="umDAyvMPifwkjuy2INvD-27" vertex="1">
          <mxGeometry width="60" height="40" as="geometry">
            <mxRectangle width="60" height="40" as="alternateBounds" />
          </mxGeometry>
        </mxCell>
        <mxCell id="umDAyvMPifwkjuy2INvD-29" value="HTML, CSS, Js" style="shape=partialRectangle;html=1;whiteSpace=wrap;connectable=0;strokeColor=inherit;overflow=hidden;fillColor=none;top=0;left=0;bottom=0;right=0;pointerEvents=1;fontSize=12;" parent="umDAyvMPifwkjuy2INvD-27" vertex="1">
          <mxGeometry x="60" width="60" height="40" as="geometry">
            <mxRectangle width="60" height="40" as="alternateBounds" />
          </mxGeometry>
        </mxCell>
        <mxCell id="umDAyvMPifwkjuy2INvD-30" value="" style="shape=tableRow;horizontal=0;startSize=0;swimlaneHead=0;swimlaneBody=0;strokeColor=inherit;top=0;left=0;bottom=0;right=0;collapsible=0;dropTarget=0;fillColor=none;points=[[0,0.5],[1,0.5]];portConstraint=eastwest;fontSize=12;" parent="umDAyvMPifwkjuy2INvD-26" vertex="1">
          <mxGeometry y="40" width="120" height="40" as="geometry" />
        </mxCell>
        <mxCell id="umDAyvMPifwkjuy2INvD-31" value="Backend" style="shape=partialRectangle;html=1;whiteSpace=wrap;connectable=0;strokeColor=inherit;overflow=hidden;fillColor=none;top=0;left=0;bottom=0;right=0;pointerEvents=1;fontSize=12;" parent="umDAyvMPifwkjuy2INvD-30" vertex="1">
          <mxGeometry width="60" height="40" as="geometry">
            <mxRectangle width="60" height="40" as="alternateBounds" />
          </mxGeometry>
        </mxCell>
        <mxCell id="umDAyvMPifwkjuy2INvD-32" value="Python Flask" style="shape=partialRectangle;html=1;whiteSpace=wrap;connectable=0;strokeColor=inherit;overflow=hidden;fillColor=none;top=0;left=0;bottom=0;right=0;pointerEvents=1;fontSize=12;" parent="umDAyvMPifwkjuy2INvD-30" vertex="1">
          <mxGeometry x="60" width="60" height="40" as="geometry">
            <mxRectangle width="60" height="40" as="alternateBounds" />
          </mxGeometry>
        </mxCell>
        <mxCell id="umDAyvMPifwkjuy2INvD-33" value="" style="shape=tableRow;horizontal=0;startSize=0;swimlaneHead=0;swimlaneBody=0;strokeColor=inherit;top=0;left=0;bottom=0;right=0;collapsible=0;dropTarget=0;fillColor=none;points=[[0,0.5],[1,0.5]];portConstraint=eastwest;fontSize=12;" parent="umDAyvMPifwkjuy2INvD-26" vertex="1">
          <mxGeometry y="80" width="120" height="40" as="geometry" />
        </mxCell>
        <mxCell id="umDAyvMPifwkjuy2INvD-34" value="DB" style="shape=partialRectangle;html=1;whiteSpace=wrap;connectable=0;strokeColor=inherit;overflow=hidden;fillColor=none;top=0;left=0;bottom=0;right=0;pointerEvents=1;fontSize=12;" parent="umDAyvMPifwkjuy2INvD-33" vertex="1">
          <mxGeometry width="60" height="40" as="geometry">
            <mxRectangle width="60" height="40" as="alternateBounds" />
          </mxGeometry>
        </mxCell>
        <mxCell id="umDAyvMPifwkjuy2INvD-35" value="SQL (SQLite3)" style="shape=partialRectangle;html=1;whiteSpace=wrap;connectable=0;strokeColor=inherit;overflow=hidden;fillColor=none;top=0;left=0;bottom=0;right=0;pointerEvents=1;fontSize=12;" parent="umDAyvMPifwkjuy2INvD-33" vertex="1">
          <mxGeometry x="60" width="60" height="40" as="geometry">
            <mxRectangle width="60" height="40" as="alternateBounds" />
          </mxGeometry>
        </mxCell>
        <mxCell id="umDAyvMPifwkjuy2INvD-37" style="edgeStyle=orthogonalEdgeStyle;rounded=0;orthogonalLoop=1;jettySize=auto;html=1;exitX=1;exitY=0.5;exitDx=0;exitDy=0;entryX=0;entryY=0.75;entryDx=0;entryDy=0;fontSize=12;dashed=1;dashPattern=1 2;" parent="1" source="umDAyvMPifwkjuy2INvD-27" target="VQ0S9H2RZAa2qH6vHvZ1-11" edge="1">
          <mxGeometry relative="1" as="geometry">
            <Array as="points">
              <mxPoint x="291" y="343" />
              <mxPoint x="291" y="453" />
            </Array>
          </mxGeometry>
        </mxCell>
        <mxCell id="jpA0OWsfGMPZtDlgNMbo-2" style="edgeStyle=orthogonalEdgeStyle;rounded=0;orthogonalLoop=1;jettySize=auto;html=1;exitX=0.5;exitY=0;exitDx=0;exitDy=0;entryX=1;entryY=0.75;entryDx=0;entryDy=0;labelBackgroundColor=#ffffff;fontSize=12;endArrow=classic;endFill=1;dashed=1;dashPattern=1 2;" parent="1" source="jpA0OWsfGMPZtDlgNMbo-1" target="VQ0S9H2RZAa2qH6vHvZ1-11" edge="1">
          <mxGeometry relative="1" as="geometry">
            <Array as="points">
              <mxPoint x="756" y="486" />
              <mxPoint x="628" y="486" />
              <mxPoint x="628" y="453" />
            </Array>
          </mxGeometry>
        </mxCell>
        <mxCell id="jpA0OWsfGMPZtDlgNMbo-1" value="&lt;b&gt;don&#39;t forget the RSS-Feed!&lt;/b&gt;" style="text;html=1;strokeColor=default;fillColor=none;align=center;verticalAlign=middle;whiteSpace=wrap;rounded=0;fontSize=12;" parent="1" vertex="1">
          <mxGeometry x="680" y="581" width="151" height="30" as="geometry" />
        </mxCell>
        <mxCell id="hUyaMf82zWludLaC_aFj-4" style="edgeStyle=orthogonalEdgeStyle;rounded=0;orthogonalLoop=1;jettySize=auto;html=1;exitX=1;exitY=0.5;exitDx=0;exitDy=0;entryX=0.5;entryY=0;entryDx=0;entryDy=0;entryPerimeter=0;dashed=1;dashPattern=12 12;" parent="1" source="hUyaMf82zWludLaC_aFj-1" target="VQ0S9H2RZAa2qH6vHvZ1-31" edge="1">
          <mxGeometry relative="1" as="geometry" />
        </mxCell>
        <mxCell id="hUyaMf82zWludLaC_aFj-6" style="edgeStyle=orthogonalEdgeStyle;rounded=0;orthogonalLoop=1;jettySize=auto;html=1;exitX=1;exitY=1;exitDx=0;exitDy=0;entryX=1;entryY=0;entryDx=0;entryDy=0;" parent="1" source="hUyaMf82zWludLaC_aFj-1" target="VQ0S9H2RZAa2qH6vHvZ1-2" edge="1">
          <mxGeometry relative="1" as="geometry" />
        </mxCell>
        <mxCell id="hUyaMf82zWludLaC_aFj-1" value="/admin/signup&lt;br&gt;- signup.html" style="rounded=0;whiteSpace=wrap;html=1;" parent="1" vertex="1">
          <mxGeometry x="462" y="28" width="120" height="60" as="geometry" />
        </mxCell>
      </root>
    </mxGraphModel>
  </diagram>
  <diagram id="rdt_rQsPSeUMuqxWa6Bz" name="login">
    <mxGraphModel dx="1134" dy="781" grid="0" gridSize="10" guides="1" tooltips="1" connect="1" arrows="1" fold="1" page="1" pageScale="1" pageWidth="1169" pageHeight="827" math="0" shadow="0">
      <root>
        <mxCell id="0" />
        <mxCell id="1" parent="0" />
        <mxCell id="dc0tCV_pdesJHcatdCEC-7" style="edgeStyle=orthogonalEdgeStyle;rounded=0;orthogonalLoop=1;jettySize=auto;html=1;exitX=0.5;exitY=1;exitDx=0;exitDy=0;entryX=0.5;entryY=0;entryDx=0;entryDy=0;labelBackgroundColor=#e6e6e6;fontSize=12;" parent="1" source="dc0tCV_pdesJHcatdCEC-4" target="dc0tCV_pdesJHcatdCEC-6" edge="1">
          <mxGeometry relative="1" as="geometry" />
        </mxCell>
        <mxCell id="dc0tCV_pdesJHcatdCEC-4" value="/admin/login" style="ellipse;whiteSpace=wrap;html=1;aspect=fixed;fontSize=12;" parent="1" vertex="1">
          <mxGeometry x="492" y="59" width="80" height="80" as="geometry" />
        </mxCell>
        <mxCell id="dc0tCV_pdesJHcatdCEC-12" style="edgeStyle=orthogonalEdgeStyle;rounded=0;orthogonalLoop=1;jettySize=auto;html=1;exitX=1;exitY=0.5;exitDx=0;exitDy=0;entryX=0;entryY=0.5;entryDx=0;entryDy=0;labelBackgroundColor=#e6e6e6;fontSize=12;shape=link;" parent="1" source="dc0tCV_pdesJHcatdCEC-6" target="dc0tCV_pdesJHcatdCEC-8" edge="1">
          <mxGeometry relative="1" as="geometry" />
        </mxCell>
        <mxCell id="dc0tCV_pdesJHcatdCEC-14" value="" style="edgeStyle=orthogonalEdgeStyle;rounded=0;orthogonalLoop=1;jettySize=auto;html=1;labelBackgroundColor=#e6e6e6;fontSize=12;" parent="1" source="dc0tCV_pdesJHcatdCEC-6" target="dc0tCV_pdesJHcatdCEC-13" edge="1">
          <mxGeometry relative="1" as="geometry" />
        </mxCell>
        <mxCell id="dc0tCV_pdesJHcatdCEC-6" value="render_template(login.html)" style="rounded=1;whiteSpace=wrap;html=1;fontSize=12;" parent="1" vertex="1">
          <mxGeometry x="440" y="198" width="184" height="60" as="geometry" />
        </mxCell>
        <mxCell id="dc0tCV_pdesJHcatdCEC-8" value="" style="swimlane;startSize=0;fontSize=12;" parent="1" vertex="1">
          <mxGeometry x="649" y="157.5" width="140" height="141" as="geometry">
            <mxRectangle x="343" y="133" width="50" height="44" as="alternateBounds" />
          </mxGeometry>
        </mxCell>
        <mxCell id="dc0tCV_pdesJHcatdCEC-9" value="login" style="text;html=1;strokeColor=none;fillColor=none;align=center;verticalAlign=middle;whiteSpace=wrap;rounded=0;fontSize=12;" parent="dc0tCV_pdesJHcatdCEC-8" vertex="1">
          <mxGeometry x="19" y="17" width="60" height="30" as="geometry" />
        </mxCell>
        <mxCell id="dc0tCV_pdesJHcatdCEC-10" value="username" style="shape=process;whiteSpace=wrap;html=1;backgroundOutline=1;fontSize=12;" parent="dc0tCV_pdesJHcatdCEC-8" vertex="1">
          <mxGeometry x="26" y="54" width="75" height="23" as="geometry" />
        </mxCell>
        <mxCell id="dc0tCV_pdesJHcatdCEC-11" value="password" style="shape=process;whiteSpace=wrap;html=1;backgroundOutline=1;fontSize=12;" parent="dc0tCV_pdesJHcatdCEC-8" vertex="1">
          <mxGeometry x="26" y="93" width="76" height="21" as="geometry" />
        </mxCell>
        <mxCell id="dc0tCV_pdesJHcatdCEC-16" value="" style="edgeStyle=orthogonalEdgeStyle;rounded=0;orthogonalLoop=1;jettySize=auto;html=1;labelBackgroundColor=#e6e6e6;fontSize=12;" parent="1" source="dc0tCV_pdesJHcatdCEC-13" target="dc0tCV_pdesJHcatdCEC-15" edge="1">
          <mxGeometry relative="1" as="geometry" />
        </mxCell>
        <mxCell id="dc0tCV_pdesJHcatdCEC-13" value="input username" style="whiteSpace=wrap;html=1;fillColor=rgb(255, 255, 255);rounded=1;" parent="1" vertex="1">
          <mxGeometry x="472" y="338" width="120" height="60" as="geometry" />
        </mxCell>
        <mxCell id="dc0tCV_pdesJHcatdCEC-21" style="edgeStyle=orthogonalEdgeStyle;rounded=0;orthogonalLoop=1;jettySize=auto;html=1;exitX=0.5;exitY=1;exitDx=0;exitDy=0;entryX=0.5;entryY=0;entryDx=0;entryDy=0;labelBackgroundColor=#e6e6e6;fontSize=12;" parent="1" source="dc0tCV_pdesJHcatdCEC-15" target="dc0tCV_pdesJHcatdCEC-20" edge="1">
          <mxGeometry relative="1" as="geometry" />
        </mxCell>
        <mxCell id="dc0tCV_pdesJHcatdCEC-15" value="input password" style="whiteSpace=wrap;html=1;fillColor=rgb(255, 255, 255);rounded=1;" parent="1" vertex="1">
          <mxGeometry x="472" y="436" width="120" height="60" as="geometry" />
        </mxCell>
        <mxCell id="dc0tCV_pdesJHcatdCEC-17" value="" style="shape=curlyBracket;whiteSpace=wrap;html=1;rounded=1;labelPosition=left;verticalLabelPosition=middle;align=right;verticalAlign=middle;fontSize=12;" parent="1" vertex="1">
          <mxGeometry x="427" y="338" width="20" height="160" as="geometry" />
        </mxCell>
        <mxCell id="dc0tCV_pdesJHcatdCEC-18" value="" style="shape=curlyBracket;whiteSpace=wrap;html=1;rounded=1;flipH=1;labelPosition=right;verticalLabelPosition=middle;align=left;verticalAlign=middle;fontSize=12;" parent="1" vertex="1">
          <mxGeometry x="618" y="339" width="20" height="160" as="geometry" />
        </mxCell>
        <mxCell id="dc0tCV_pdesJHcatdCEC-19" value="db" style="shape=cylinder3;whiteSpace=wrap;html=1;boundedLbl=1;backgroundOutline=1;size=15;fontSize=12;" parent="1" vertex="1">
          <mxGeometry x="634" y="518" width="60" height="80" as="geometry" />
        </mxCell>
        <mxCell id="dc0tCV_pdesJHcatdCEC-25" style="edgeStyle=orthogonalEdgeStyle;rounded=0;orthogonalLoop=1;jettySize=auto;html=1;exitX=0.5;exitY=1;exitDx=0;exitDy=0;entryX=0.5;entryY=0;entryDx=0;entryDy=0;labelBackgroundColor=#e6e6e6;fontSize=12;endArrow=classic;endFill=1;" parent="1" source="dc0tCV_pdesJHcatdCEC-20" target="dc0tCV_pdesJHcatdCEC-23" edge="1">
          <mxGeometry relative="1" as="geometry" />
        </mxCell>
        <mxCell id="dc0tCV_pdesJHcatdCEC-20" value="submit" style="shape=step;perimeter=stepPerimeter;whiteSpace=wrap;html=1;fixedSize=1;fontSize=12;" parent="1" vertex="1">
          <mxGeometry x="472" y="534" width="120" height="37" as="geometry" />
        </mxCell>
        <mxCell id="dc0tCV_pdesJHcatdCEC-24" style="edgeStyle=orthogonalEdgeStyle;rounded=0;orthogonalLoop=1;jettySize=auto;html=1;exitX=1;exitY=0;exitDx=0;exitDy=0;entryX=0;entryY=0.5;entryDx=0;entryDy=0;entryPerimeter=0;labelBackgroundColor=#e6e6e6;fontSize=12;dashed=1;endArrow=none;endFill=0;" parent="1" source="dc0tCV_pdesJHcatdCEC-23" target="dc0tCV_pdesJHcatdCEC-19" edge="1">
          <mxGeometry relative="1" as="geometry" />
        </mxCell>
        <mxCell id="dc0tCV_pdesJHcatdCEC-28" value="&lt;span style=&quot;background-color: rgb(255, 255, 255);&quot;&gt;False&lt;/span&gt;" style="edgeStyle=orthogonalEdgeStyle;rounded=0;orthogonalLoop=1;jettySize=auto;html=1;exitX=0;exitY=0.5;exitDx=0;exitDy=0;entryX=0.5;entryY=1;entryDx=0;entryDy=0;labelBackgroundColor=#e6e6e6;fontSize=12;endArrow=classic;endFill=1;" parent="1" source="dc0tCV_pdesJHcatdCEC-23" target="dc0tCV_pdesJHcatdCEC-27" edge="1">
          <mxGeometry relative="1" as="geometry" />
        </mxCell>
        <mxCell id="dc0tCV_pdesJHcatdCEC-31" value="True" style="edgeStyle=orthogonalEdgeStyle;rounded=0;orthogonalLoop=1;jettySize=auto;html=1;exitX=1;exitY=0.5;exitDx=0;exitDy=0;entryX=0;entryY=0.5;entryDx=0;entryDy=0;labelBackgroundColor=#ffffff;fontSize=12;endArrow=classic;endFill=1;" parent="1" source="dc0tCV_pdesJHcatdCEC-23" target="dc0tCV_pdesJHcatdCEC-30" edge="1">
          <mxGeometry relative="1" as="geometry" />
        </mxCell>
        <mxCell id="dc0tCV_pdesJHcatdCEC-23" value="if username == [db] and password == [db]:" style="rhombus;whiteSpace=wrap;html=1;fontSize=12;" parent="1" vertex="1">
          <mxGeometry x="366.5" y="596" width="331" height="45" as="geometry" />
        </mxCell>
        <mxCell id="dc0tCV_pdesJHcatdCEC-29" style="edgeStyle=orthogonalEdgeStyle;rounded=0;orthogonalLoop=1;jettySize=auto;html=1;exitX=0.5;exitY=0;exitDx=0;exitDy=0;entryX=0;entryY=0.5;entryDx=0;entryDy=0;labelBackgroundColor=#ffffff;fontSize=12;endArrow=classic;endFill=1;" parent="1" source="dc0tCV_pdesJHcatdCEC-27" target="dc0tCV_pdesJHcatdCEC-6" edge="1">
          <mxGeometry relative="1" as="geometry" />
        </mxCell>
        <mxCell id="dc0tCV_pdesJHcatdCEC-27" value="flash =&amp;gt; &quot;incorrect Password or/and username&quot;" style="rounded=1;whiteSpace=wrap;html=1;fontSize=12;" parent="1" vertex="1">
          <mxGeometry x="221" y="379" width="120" height="60" as="geometry" />
        </mxCell>
        <mxCell id="dc0tCV_pdesJHcatdCEC-33" style="edgeStyle=orthogonalEdgeStyle;rounded=0;orthogonalLoop=1;jettySize=auto;html=1;exitX=0.5;exitY=0;exitDx=0;exitDy=0;entryX=0.5;entryY=1;entryDx=0;entryDy=0;labelBackgroundColor=#ffffff;fontSize=12;endArrow=classic;endFill=1;" parent="1" source="dc0tCV_pdesJHcatdCEC-30" target="dc0tCV_pdesJHcatdCEC-32" edge="1">
          <mxGeometry relative="1" as="geometry" />
        </mxCell>
        <mxCell id="dc0tCV_pdesJHcatdCEC-30" value="start a new session" style="shape=trapezoid;perimeter=trapezoidPerimeter;whiteSpace=wrap;html=1;fixedSize=1;fontSize=12;" parent="1" vertex="1">
          <mxGeometry x="821" y="601" width="138" height="35" as="geometry" />
        </mxCell>
        <mxCell id="dc0tCV_pdesJHcatdCEC-35" style="edgeStyle=orthogonalEdgeStyle;rounded=0;orthogonalLoop=1;jettySize=auto;html=1;exitX=0.5;exitY=0;exitDx=0;exitDy=0;entryX=0.5;entryY=1;entryDx=0;entryDy=0;labelBackgroundColor=#ffffff;fontSize=12;endArrow=classic;endFill=1;dashed=1;" parent="1" source="dc0tCV_pdesJHcatdCEC-32" target="dc0tCV_pdesJHcatdCEC-40" edge="1">
          <mxGeometry relative="1" as="geometry">
            <mxPoint x="890.0000000000002" y="436" as="targetPoint" />
          </mxGeometry>
        </mxCell>
        <mxCell id="dc0tCV_pdesJHcatdCEC-32" value="redirect to /admin/panel" style="rounded=1;whiteSpace=wrap;html=1;fontSize=12;" parent="1" vertex="1">
          <mxGeometry x="830" y="486" width="120" height="60" as="geometry" />
        </mxCell>
        <mxCell id="dc0tCV_pdesJHcatdCEC-39" style="edgeStyle=orthogonalEdgeStyle;rounded=0;orthogonalLoop=1;jettySize=auto;html=1;exitX=0.5;exitY=0;exitDx=0;exitDy=0;entryX=0.5;entryY=1;entryDx=0;entryDy=0;labelBackgroundColor=#ffffff;fontSize=12;endArrow=classic;endFill=1;" parent="1" target="dc0tCV_pdesJHcatdCEC-38" edge="1">
          <mxGeometry relative="1" as="geometry">
            <mxPoint x="890.0000000000002" y="356" as="sourcePoint" />
          </mxGeometry>
        </mxCell>
        <mxCell id="dc0tCV_pdesJHcatdCEC-41" value="redirect" style="edgeStyle=orthogonalEdgeStyle;rounded=0;orthogonalLoop=1;jettySize=auto;html=1;exitX=0.5;exitY=0;exitDx=0;exitDy=0;entryX=1;entryY=0.5;entryDx=0;entryDy=0;labelBackgroundColor=#ffffff;fontSize=12;endArrow=classic;endFill=1;" parent="1" source="dc0tCV_pdesJHcatdCEC-38" target="dc0tCV_pdesJHcatdCEC-4" edge="1">
          <mxGeometry relative="1" as="geometry" />
        </mxCell>
        <mxCell id="dc0tCV_pdesJHcatdCEC-38" value="delete (stop) session" style="rounded=1;whiteSpace=wrap;html=1;fontSize=12;" parent="1" vertex="1">
          <mxGeometry x="830" y="265" width="120" height="60" as="geometry" />
        </mxCell>
        <mxCell id="dc0tCV_pdesJHcatdCEC-40" value="logout" style="shape=hexagon;perimeter=hexagonPerimeter2;whiteSpace=wrap;html=1;fixedSize=1;fontSize=12;" parent="1" vertex="1">
          <mxGeometry x="830" y="356" width="120" height="80" as="geometry" />
        </mxCell>
        <mxCell id="8csF_UY-VPPJmvj2ppOR-3" value="" style="shape=flexArrow;endArrow=classic;html=1;rounded=0;dashed=1;dashPattern=1 2;labelBackgroundColor=#ffffff;fontSize=12;" parent="1" edge="1">
          <mxGeometry width="50" height="50" relative="1" as="geometry">
            <mxPoint x="414" y="98" as="sourcePoint" />
            <mxPoint x="492" y="98.41" as="targetPoint" />
          </mxGeometry>
        </mxCell>
      </root>
    </mxGraphModel>
  </diagram>
  <diagram id="mNiA6fUASKVqURFtIPYP" name="signup_and_login">
    <mxGraphModel dx="794" dy="547" grid="0" gridSize="10" guides="1" tooltips="1" connect="1" arrows="1" fold="1" page="1" pageScale="1" pageWidth="1169" pageHeight="827" math="0" shadow="0">
      <root>
        <mxCell id="0" />
        <mxCell id="1" parent="0" />
        <mxCell id="DSvVIobrv-WT1wst0sKc-3" style="edgeStyle=orthogonalEdgeStyle;rounded=0;orthogonalLoop=1;jettySize=auto;html=1;exitX=1;exitY=0.5;exitDx=0;exitDy=0;entryX=0;entryY=0.5;entryDx=0;entryDy=0;" parent="1" source="DSvVIobrv-WT1wst0sKc-1" target="DSvVIobrv-WT1wst0sKc-2" edge="1">
          <mxGeometry relative="1" as="geometry" />
        </mxCell>
        <mxCell id="DSvVIobrv-WT1wst0sKc-1" value="admin/login" style="ellipse;whiteSpace=wrap;html=1;aspect=fixed;" parent="1" vertex="1">
          <mxGeometry x="61" y="53" width="80" height="80" as="geometry" />
        </mxCell>
        <mxCell id="Js0bWGxwaFHJMJvKYM1a-1" style="edgeStyle=orthogonalEdgeStyle;rounded=0;orthogonalLoop=1;jettySize=auto;html=1;exitX=0.5;exitY=1;exitDx=0;exitDy=0;" parent="1" source="DSvVIobrv-WT1wst0sKc-2" target="DSvVIobrv-WT1wst0sKc-8" edge="1">
          <mxGeometry relative="1" as="geometry" />
        </mxCell>
        <mxCell id="DSvVIobrv-WT1wst0sKc-2" value="render_template(&#39;login.html&#39;)" style="rounded=0;whiteSpace=wrap;html=1;" parent="1" vertex="1">
          <mxGeometry x="218" y="63" width="166" height="60" as="geometry" />
        </mxCell>
        <mxCell id="Js0bWGxwaFHJMJvKYM1a-4" value="go to signup" style="edgeStyle=orthogonalEdgeStyle;rounded=0;orthogonalLoop=1;jettySize=auto;html=1;exitX=0.25;exitY=1;exitDx=0;exitDy=0;entryX=0.5;entryY=0;entryDx=0;entryDy=0;" parent="1" source="DSvVIobrv-WT1wst0sKc-8" target="Js0bWGxwaFHJMJvKYM1a-3" edge="1">
          <mxGeometry relative="1" as="geometry" />
        </mxCell>
        <mxCell id="9xVQNEqwiLV9gUeCD2tW-5" value="Login" style="edgeStyle=orthogonalEdgeStyle;rounded=0;orthogonalLoop=1;jettySize=auto;html=1;exitX=1;exitY=0.25;exitDx=0;exitDy=0;entryX=0;entryY=0.5;entryDx=0;entryDy=0;" parent="1" source="DSvVIobrv-WT1wst0sKc-8" target="9xVQNEqwiLV9gUeCD2tW-4" edge="1">
          <mxGeometry relative="1" as="geometry" />
        </mxCell>
        <mxCell id="DSvVIobrv-WT1wst0sKc-8" value="" style="swimlane;startSize=0;" parent="1" vertex="1">
          <mxGeometry x="134.5" y="187" width="333" height="260" as="geometry" />
        </mxCell>
        <mxCell id="DSvVIobrv-WT1wst0sKc-10" value="Log-In" style="text;html=1;strokeColor=none;fillColor=none;align=center;verticalAlign=middle;whiteSpace=wrap;rounded=0;fontStyle=5" parent="DSvVIobrv-WT1wst0sKc-8" vertex="1">
          <mxGeometry x="23" y="15" width="60" height="30" as="geometry" />
        </mxCell>
        <mxCell id="DSvVIobrv-WT1wst0sKc-11" value="username" style="rounded=1;whiteSpace=wrap;html=1;" parent="DSvVIobrv-WT1wst0sKc-8" vertex="1">
          <mxGeometry x="23" y="48" width="100" height="18" as="geometry" />
        </mxCell>
        <mxCell id="DSvVIobrv-WT1wst0sKc-12" value="password" style="rounded=1;whiteSpace=wrap;html=1;" parent="DSvVIobrv-WT1wst0sKc-8" vertex="1">
          <mxGeometry x="23" y="78" width="100" height="18" as="geometry" />
        </mxCell>
        <mxCell id="DSvVIobrv-WT1wst0sKc-13" value="submit" style="shape=step;perimeter=stepPerimeter;whiteSpace=wrap;html=1;fixedSize=1;" parent="DSvVIobrv-WT1wst0sKc-8" vertex="1">
          <mxGeometry x="23" y="108" width="100" height="18" as="geometry" />
        </mxCell>
        <mxCell id="DSvVIobrv-WT1wst0sKc-15" value="" style="rounded=0;whiteSpace=wrap;html=1;" parent="DSvVIobrv-WT1wst0sKc-8" vertex="1">
          <mxGeometry x="14" y="148" width="285" height="3" as="geometry" />
        </mxCell>
        <mxCell id="DSvVIobrv-WT1wst0sKc-16" value="Sign-Up" style="text;html=1;strokeColor=none;fillColor=none;align=center;verticalAlign=middle;whiteSpace=wrap;rounded=0;fontStyle=5" parent="DSvVIobrv-WT1wst0sKc-8" vertex="1">
          <mxGeometry x="14" y="156" width="60" height="30" as="geometry" />
        </mxCell>
        <mxCell id="Js0bWGxwaFHJMJvKYM1a-2" value="=&amp;gt; goto" style="rounded=0;whiteSpace=wrap;html=1;" parent="DSvVIobrv-WT1wst0sKc-8" vertex="1">
          <mxGeometry x="23" y="197" width="76.5" height="25" as="geometry" />
        </mxCell>
        <mxCell id="Js0bWGxwaFHJMJvKYM1a-5" style="edgeStyle=orthogonalEdgeStyle;rounded=0;orthogonalLoop=1;jettySize=auto;html=1;exitX=0;exitY=0.5;exitDx=0;exitDy=0;entryX=0;entryY=0.75;entryDx=0;entryDy=0;" parent="1" source="Js0bWGxwaFHJMJvKYM1a-3" target="DSvVIobrv-WT1wst0sKc-8" edge="1">
          <mxGeometry relative="1" as="geometry">
            <Array as="points">
              <mxPoint x="98" y="539" />
              <mxPoint x="98" y="382" />
            </Array>
          </mxGeometry>
        </mxCell>
        <mxCell id="Js0bWGxwaFHJMJvKYM1a-6" value="False" style="edgeLabel;html=1;align=center;verticalAlign=middle;resizable=0;points=[];" parent="Js0bWGxwaFHJMJvKYM1a-5" vertex="1" connectable="0">
          <mxGeometry x="0.1372" y="2" relative="1" as="geometry">
            <mxPoint as="offset" />
          </mxGeometry>
        </mxCell>
        <mxCell id="Js0bWGxwaFHJMJvKYM1a-11" value="True" style="edgeStyle=orthogonalEdgeStyle;rounded=0;orthogonalLoop=1;jettySize=auto;html=1;exitX=0.5;exitY=1;exitDx=0;exitDy=0;entryX=0.5;entryY=0;entryDx=0;entryDy=0;" parent="1" source="Js0bWGxwaFHJMJvKYM1a-3" target="Js0bWGxwaFHJMJvKYM1a-10" edge="1">
          <mxGeometry relative="1" as="geometry" />
        </mxCell>
        <mxCell id="Js0bWGxwaFHJMJvKYM1a-3" value="js: prompt(&quot;Admincode&quot;);" style="rounded=0;whiteSpace=wrap;html=1;" parent="1" vertex="1">
          <mxGeometry x="156" y="509" width="120" height="60" as="geometry" />
        </mxCell>
        <mxCell id="Js0bWGxwaFHJMJvKYM1a-8" style="edgeStyle=orthogonalEdgeStyle;rounded=0;orthogonalLoop=1;jettySize=auto;html=1;exitX=0;exitY=0.5;exitDx=0;exitDy=0;exitPerimeter=0;entryX=1;entryY=0.5;entryDx=0;entryDy=0;" parent="1" source="Js0bWGxwaFHJMJvKYM1a-7" target="Js0bWGxwaFHJMJvKYM1a-3" edge="1">
          <mxGeometry relative="1" as="geometry" />
        </mxCell>
        <mxCell id="Js0bWGxwaFHJMJvKYM1a-7" value="admincode.txt" style="shape=note;whiteSpace=wrap;html=1;backgroundOutline=1;darkOpacity=0.05;" parent="1" vertex="1">
          <mxGeometry x="350" y="489" width="80" height="100" as="geometry" />
        </mxCell>
        <mxCell id="9xVQNEqwiLV9gUeCD2tW-1" style="edgeStyle=orthogonalEdgeStyle;rounded=0;orthogonalLoop=1;jettySize=auto;html=1;exitX=1;exitY=0.75;exitDx=0;exitDy=0;entryX=0;entryY=0.5;entryDx=0;entryDy=0;entryPerimeter=0;" parent="1" source="Js0bWGxwaFHJMJvKYM1a-9" target="Js0bWGxwaFHJMJvKYM1a-17" edge="1">
          <mxGeometry relative="1" as="geometry" />
        </mxCell>
        <mxCell id="9xVQNEqwiLV9gUeCD2tW-2" value="entry" style="edgeLabel;html=1;align=center;verticalAlign=middle;resizable=0;points=[];" parent="9xVQNEqwiLV9gUeCD2tW-1" vertex="1" connectable="0">
          <mxGeometry x="-0.3208" y="2" relative="1" as="geometry">
            <mxPoint as="offset" />
          </mxGeometry>
        </mxCell>
        <mxCell id="9xVQNEqwiLV9gUeCD2tW-3" value="redirect" style="edgeStyle=orthogonalEdgeStyle;rounded=0;orthogonalLoop=1;jettySize=auto;html=1;exitX=1;exitY=0.25;exitDx=0;exitDy=0;entryX=1;entryY=0.75;entryDx=0;entryDy=0;" parent="1" source="Js0bWGxwaFHJMJvKYM1a-9" target="DSvVIobrv-WT1wst0sKc-8" edge="1">
          <mxGeometry relative="1" as="geometry" />
        </mxCell>
        <mxCell id="Js0bWGxwaFHJMJvKYM1a-9" value="" style="swimlane;startSize=0;" parent="1" vertex="1">
          <mxGeometry x="280" y="608" width="200" height="170" as="geometry">
            <mxRectangle x="280" y="608" width="50" height="44" as="alternateBounds" />
          </mxGeometry>
        </mxCell>
        <mxCell id="Js0bWGxwaFHJMJvKYM1a-13" value="Sign-Up" style="text;html=1;strokeColor=none;fillColor=none;align=center;verticalAlign=middle;whiteSpace=wrap;rounded=0;fontStyle=5" parent="Js0bWGxwaFHJMJvKYM1a-9" vertex="1">
          <mxGeometry x="14" y="11" width="60" height="30" as="geometry" />
        </mxCell>
        <mxCell id="Js0bWGxwaFHJMJvKYM1a-14" value="username" style="rounded=1;whiteSpace=wrap;html=1;" parent="Js0bWGxwaFHJMJvKYM1a-9" vertex="1">
          <mxGeometry x="14" y="44" width="100" height="18" as="geometry" />
        </mxCell>
        <mxCell id="Js0bWGxwaFHJMJvKYM1a-15" value="password" style="rounded=1;whiteSpace=wrap;html=1;" parent="Js0bWGxwaFHJMJvKYM1a-9" vertex="1">
          <mxGeometry x="14" y="74" width="100" height="18" as="geometry" />
        </mxCell>
        <mxCell id="Js0bWGxwaFHJMJvKYM1a-16" value="create Account" style="shape=step;perimeter=stepPerimeter;whiteSpace=wrap;html=1;fixedSize=1;" parent="Js0bWGxwaFHJMJvKYM1a-9" vertex="1">
          <mxGeometry x="14" y="104" width="131" height="18" as="geometry" />
        </mxCell>
        <mxCell id="Js0bWGxwaFHJMJvKYM1a-12" style="edgeStyle=orthogonalEdgeStyle;rounded=0;orthogonalLoop=1;jettySize=auto;html=1;exitX=1;exitY=0.5;exitDx=0;exitDy=0;entryX=0;entryY=0.5;entryDx=0;entryDy=0;" parent="1" source="Js0bWGxwaFHJMJvKYM1a-10" target="Js0bWGxwaFHJMJvKYM1a-9" edge="1">
          <mxGeometry relative="1" as="geometry" />
        </mxCell>
        <mxCell id="Js0bWGxwaFHJMJvKYM1a-10" value="render_template(&#39;signup.html&#39;)" style="rounded=0;whiteSpace=wrap;html=1;" parent="1" vertex="1">
          <mxGeometry x="55" y="678" width="173" height="60" as="geometry" />
        </mxCell>
        <mxCell id="9xVQNEqwiLV9gUeCD2tW-10" style="edgeStyle=orthogonalEdgeStyle;rounded=0;orthogonalLoop=1;jettySize=auto;html=1;exitX=0.855;exitY=0;exitDx=0;exitDy=4.35;exitPerimeter=0;entryX=0.5;entryY=1;entryDx=0;entryDy=0;" parent="1" source="Js0bWGxwaFHJMJvKYM1a-17" target="9xVQNEqwiLV9gUeCD2tW-4" edge="1">
          <mxGeometry relative="1" as="geometry">
            <Array as="points">
              <mxPoint x="683" y="476" />
            </Array>
          </mxGeometry>
        </mxCell>
        <mxCell id="Js0bWGxwaFHJMJvKYM1a-17" value="db" style="shape=cylinder3;whiteSpace=wrap;html=1;boundedLbl=1;backgroundOutline=1;size=15;" parent="1" vertex="1">
          <mxGeometry x="610" y="472" width="60" height="80" as="geometry" />
        </mxCell>
        <mxCell id="9xVQNEqwiLV9gUeCD2tW-9" style="edgeStyle=orthogonalEdgeStyle;rounded=0;orthogonalLoop=1;jettySize=auto;html=1;exitX=0;exitY=1;exitDx=0;exitDy=0;entryX=0.145;entryY=0;entryDx=0;entryDy=4.35;entryPerimeter=0;" parent="1" source="9xVQNEqwiLV9gUeCD2tW-4" target="Js0bWGxwaFHJMJvKYM1a-17" edge="1">
          <mxGeometry relative="1" as="geometry">
            <Array as="points">
              <mxPoint x="619" y="289" />
            </Array>
          </mxGeometry>
        </mxCell>
        <mxCell id="9xVQNEqwiLV9gUeCD2tW-11" value="False" style="edgeStyle=orthogonalEdgeStyle;rounded=0;orthogonalLoop=1;jettySize=auto;html=1;exitX=0.5;exitY=0;exitDx=0;exitDy=0;entryX=0.75;entryY=0;entryDx=0;entryDy=0;" parent="1" source="9xVQNEqwiLV9gUeCD2tW-4" target="DSvVIobrv-WT1wst0sKc-8" edge="1">
          <mxGeometry relative="1" as="geometry">
            <Array as="points">
              <mxPoint x="683" y="141" />
              <mxPoint x="384" y="141" />
            </Array>
          </mxGeometry>
        </mxCell>
        <mxCell id="9xVQNEqwiLV9gUeCD2tW-13" value="True" style="edgeStyle=orthogonalEdgeStyle;rounded=0;orthogonalLoop=1;jettySize=auto;html=1;exitX=1;exitY=0.5;exitDx=0;exitDy=0;entryX=0;entryY=0.5;entryDx=0;entryDy=0;" parent="1" source="9xVQNEqwiLV9gUeCD2tW-4" target="9xVQNEqwiLV9gUeCD2tW-12" edge="1">
          <mxGeometry relative="1" as="geometry" />
        </mxCell>
        <mxCell id="HYCpHjZefQETRQwmIs7J-2" value="True" style="edgeStyle=orthogonalEdgeStyle;rounded=0;orthogonalLoop=1;jettySize=auto;html=1;exitX=1;exitY=0.5;exitDx=0;exitDy=0;entryX=0;entryY=0.5;entryDx=0;entryDy=0;" parent="1" source="9xVQNEqwiLV9gUeCD2tW-4" target="HYCpHjZefQETRQwmIs7J-1" edge="1">
          <mxGeometry relative="1" as="geometry">
            <Array as="points">
              <mxPoint x="774" y="181" />
            </Array>
          </mxGeometry>
        </mxCell>
        <mxCell id="9xVQNEqwiLV9gUeCD2tW-4" value="if username == [db] and password == [db]" style="rhombus;whiteSpace=wrap;html=1;" parent="1" vertex="1">
          <mxGeometry x="592" y="180" width="182" height="145" as="geometry" />
        </mxCell>
        <mxCell id="9xVQNEqwiLV9gUeCD2tW-12" value="redirect(render_template(panel.html))" style="rounded=0;whiteSpace=wrap;html=1;" parent="1" vertex="1">
          <mxGeometry x="845" y="222.5" width="220" height="60" as="geometry" />
        </mxCell>
        <mxCell id="9xVQNEqwiLV9gUeCD2tW-17" value="comparison with db" style="text;html=1;strokeColor=none;fillColor=none;align=center;verticalAlign=middle;whiteSpace=wrap;rounded=0;" parent="1" vertex="1">
          <mxGeometry x="620" y="348" width="60" height="30" as="geometry" />
        </mxCell>
        <mxCell id="HYCpHjZefQETRQwmIs7J-1" value="start new session" style="rounded=0;whiteSpace=wrap;html=1;" parent="1" vertex="1">
          <mxGeometry x="845" y="151" width="120" height="60" as="geometry" />
        </mxCell>
      </root>
    </mxGraphModel>
  </diagram>
  <diagram id="hPubBrJymxOD3icsvWlp" name="full">
    <mxGraphModel dx="1444" dy="995" grid="0" gridSize="10" guides="1" tooltips="1" connect="1" arrows="1" fold="1" page="1" pageScale="1" pageWidth="1169" pageHeight="827" math="0" shadow="0">
      <root>
        <mxCell id="0" />
        <mxCell id="1" parent="0" />
        <mxCell id="C56a6i_gi8Y1no2JAwIi-1" style="edgeStyle=orthogonalEdgeStyle;rounded=0;orthogonalLoop=1;jettySize=auto;html=1;exitX=1;exitY=0.5;exitDx=0;exitDy=0;entryX=0;entryY=0.5;entryDx=0;entryDy=0;" parent="1" source="C56a6i_gi8Y1no2JAwIi-2" target="C56a6i_gi8Y1no2JAwIi-4" edge="1">
          <mxGeometry relative="1" as="geometry" />
        </mxCell>
        <mxCell id="C56a6i_gi8Y1no2JAwIi-2" value="admin/login" style="ellipse;whiteSpace=wrap;html=1;aspect=fixed;" parent="1" vertex="1">
          <mxGeometry x="38" y="22" width="80" height="80" as="geometry" />
        </mxCell>
        <mxCell id="C56a6i_gi8Y1no2JAwIi-3" style="edgeStyle=orthogonalEdgeStyle;rounded=0;orthogonalLoop=1;jettySize=auto;html=1;exitX=0.5;exitY=1;exitDx=0;exitDy=0;" parent="1" source="C56a6i_gi8Y1no2JAwIi-4" target="C56a6i_gi8Y1no2JAwIi-7" edge="1">
          <mxGeometry relative="1" as="geometry" />
        </mxCell>
        <mxCell id="C56a6i_gi8Y1no2JAwIi-4" value="render_template(&#39;login.html&#39;)" style="rounded=0;whiteSpace=wrap;html=1;" parent="1" vertex="1">
          <mxGeometry x="195" y="32" width="166" height="60" as="geometry" />
        </mxCell>
        <mxCell id="C56a6i_gi8Y1no2JAwIi-5" value="go to signup" style="edgeStyle=orthogonalEdgeStyle;rounded=0;orthogonalLoop=1;jettySize=auto;html=1;exitX=0.25;exitY=1;exitDx=0;exitDy=0;entryX=0.5;entryY=0;entryDx=0;entryDy=0;" parent="1" source="C56a6i_gi8Y1no2JAwIi-7" target="C56a6i_gi8Y1no2JAwIi-18" edge="1">
          <mxGeometry relative="1" as="geometry" />
        </mxCell>
        <mxCell id="C56a6i_gi8Y1no2JAwIi-6" value="Login" style="edgeStyle=orthogonalEdgeStyle;rounded=0;orthogonalLoop=1;jettySize=auto;html=1;exitX=1;exitY=0.25;exitDx=0;exitDy=0;entryX=0;entryY=0.5;entryDx=0;entryDy=0;" parent="1" source="C56a6i_gi8Y1no2JAwIi-7" target="C56a6i_gi8Y1no2JAwIi-37" edge="1">
          <mxGeometry relative="1" as="geometry" />
        </mxCell>
        <mxCell id="C56a6i_gi8Y1no2JAwIi-7" value="" style="swimlane;startSize=0;" parent="1" vertex="1">
          <mxGeometry x="111.5" y="156" width="333" height="260" as="geometry" />
        </mxCell>
        <mxCell id="C56a6i_gi8Y1no2JAwIi-8" value="Log-In" style="text;html=1;strokeColor=none;fillColor=none;align=center;verticalAlign=middle;whiteSpace=wrap;rounded=0;fontStyle=5" parent="C56a6i_gi8Y1no2JAwIi-7" vertex="1">
          <mxGeometry x="23" y="15" width="60" height="30" as="geometry" />
        </mxCell>
        <mxCell id="C56a6i_gi8Y1no2JAwIi-9" value="username" style="rounded=1;whiteSpace=wrap;html=1;" parent="C56a6i_gi8Y1no2JAwIi-7" vertex="1">
          <mxGeometry x="23" y="48" width="100" height="18" as="geometry" />
        </mxCell>
        <mxCell id="C56a6i_gi8Y1no2JAwIi-10" value="password" style="rounded=1;whiteSpace=wrap;html=1;" parent="C56a6i_gi8Y1no2JAwIi-7" vertex="1">
          <mxGeometry x="23" y="78" width="100" height="18" as="geometry" />
        </mxCell>
        <mxCell id="C56a6i_gi8Y1no2JAwIi-11" value="submit" style="shape=step;perimeter=stepPerimeter;whiteSpace=wrap;html=1;fixedSize=1;" parent="C56a6i_gi8Y1no2JAwIi-7" vertex="1">
          <mxGeometry x="23" y="108" width="100" height="18" as="geometry" />
        </mxCell>
        <mxCell id="C56a6i_gi8Y1no2JAwIi-12" value="" style="rounded=0;whiteSpace=wrap;html=1;" parent="C56a6i_gi8Y1no2JAwIi-7" vertex="1">
          <mxGeometry x="14" y="148" width="285" height="3" as="geometry" />
        </mxCell>
        <mxCell id="C56a6i_gi8Y1no2JAwIi-13" value="Sign-Up" style="text;html=1;strokeColor=none;fillColor=none;align=center;verticalAlign=middle;whiteSpace=wrap;rounded=0;fontStyle=5" parent="C56a6i_gi8Y1no2JAwIi-7" vertex="1">
          <mxGeometry x="14" y="156" width="60" height="30" as="geometry" />
        </mxCell>
        <mxCell id="C56a6i_gi8Y1no2JAwIi-14" value="=&amp;gt; goto" style="rounded=0;whiteSpace=wrap;html=1;" parent="C56a6i_gi8Y1no2JAwIi-7" vertex="1">
          <mxGeometry x="23" y="197" width="76.5" height="25" as="geometry" />
        </mxCell>
        <mxCell id="C56a6i_gi8Y1no2JAwIi-15" style="edgeStyle=orthogonalEdgeStyle;rounded=0;orthogonalLoop=1;jettySize=auto;html=1;exitX=0;exitY=0.5;exitDx=0;exitDy=0;entryX=0;entryY=0.75;entryDx=0;entryDy=0;" parent="1" source="C56a6i_gi8Y1no2JAwIi-18" target="C56a6i_gi8Y1no2JAwIi-7" edge="1">
          <mxGeometry relative="1" as="geometry">
            <Array as="points">
              <mxPoint x="75" y="508" />
              <mxPoint x="75" y="351" />
            </Array>
          </mxGeometry>
        </mxCell>
        <mxCell id="C56a6i_gi8Y1no2JAwIi-16" value="False" style="edgeLabel;html=1;align=center;verticalAlign=middle;resizable=0;points=[];" parent="C56a6i_gi8Y1no2JAwIi-15" vertex="1" connectable="0">
          <mxGeometry x="0.1372" y="2" relative="1" as="geometry">
            <mxPoint as="offset" />
          </mxGeometry>
        </mxCell>
        <mxCell id="C56a6i_gi8Y1no2JAwIi-17" value="True" style="edgeStyle=orthogonalEdgeStyle;rounded=0;orthogonalLoop=1;jettySize=auto;html=1;exitX=0.5;exitY=1;exitDx=0;exitDy=0;entryX=0.5;entryY=0;entryDx=0;entryDy=0;" parent="1" source="C56a6i_gi8Y1no2JAwIi-18" target="C56a6i_gi8Y1no2JAwIi-30" edge="1">
          <mxGeometry relative="1" as="geometry" />
        </mxCell>
        <mxCell id="C56a6i_gi8Y1no2JAwIi-18" value="js: prompt(&quot;Admincode&quot;);" style="rounded=0;whiteSpace=wrap;html=1;" parent="1" vertex="1">
          <mxGeometry x="133" y="478" width="120" height="60" as="geometry" />
        </mxCell>
        <mxCell id="C56a6i_gi8Y1no2JAwIi-19" style="edgeStyle=orthogonalEdgeStyle;rounded=0;orthogonalLoop=1;jettySize=auto;html=1;exitX=0;exitY=0.5;exitDx=0;exitDy=0;exitPerimeter=0;entryX=1;entryY=0.5;entryDx=0;entryDy=0;" parent="1" source="C56a6i_gi8Y1no2JAwIi-20" target="C56a6i_gi8Y1no2JAwIi-18" edge="1">
          <mxGeometry relative="1" as="geometry" />
        </mxCell>
        <mxCell id="C56a6i_gi8Y1no2JAwIi-20" value="admincode.txt" style="shape=note;whiteSpace=wrap;html=1;backgroundOutline=1;darkOpacity=0.05;" parent="1" vertex="1">
          <mxGeometry x="327" y="458" width="80" height="100" as="geometry" />
        </mxCell>
        <mxCell id="C56a6i_gi8Y1no2JAwIi-21" style="edgeStyle=orthogonalEdgeStyle;rounded=0;orthogonalLoop=1;jettySize=auto;html=1;exitX=1;exitY=0.75;exitDx=0;exitDy=0;entryX=0;entryY=0.5;entryDx=0;entryDy=0;entryPerimeter=0;" parent="1" source="C56a6i_gi8Y1no2JAwIi-24" target="C56a6i_gi8Y1no2JAwIi-32" edge="1">
          <mxGeometry relative="1" as="geometry">
            <Array as="points">
              <mxPoint x="506" y="678" />
              <mxPoint x="506" y="392" />
            </Array>
          </mxGeometry>
        </mxCell>
        <mxCell id="C56a6i_gi8Y1no2JAwIi-22" value="entry" style="edgeLabel;html=1;align=center;verticalAlign=middle;resizable=0;points=[];" parent="C56a6i_gi8Y1no2JAwIi-21" vertex="1" connectable="0">
          <mxGeometry x="-0.3208" y="2" relative="1" as="geometry">
            <mxPoint as="offset" />
          </mxGeometry>
        </mxCell>
        <mxCell id="C56a6i_gi8Y1no2JAwIi-23" value="redirect" style="edgeStyle=orthogonalEdgeStyle;rounded=0;orthogonalLoop=1;jettySize=auto;html=1;exitX=1;exitY=0.25;exitDx=0;exitDy=0;entryX=1;entryY=0.75;entryDx=0;entryDy=0;" parent="1" source="C56a6i_gi8Y1no2JAwIi-24" target="C56a6i_gi8Y1no2JAwIi-7" edge="1">
          <mxGeometry relative="1" as="geometry" />
        </mxCell>
        <mxCell id="C56a6i_gi8Y1no2JAwIi-24" value="" style="swimlane;startSize=0;" parent="1" vertex="1">
          <mxGeometry x="257" y="577" width="200" height="135" as="geometry">
            <mxRectangle x="280" y="608" width="50" height="44" as="alternateBounds" />
          </mxGeometry>
        </mxCell>
        <mxCell id="C56a6i_gi8Y1no2JAwIi-25" value="Sign-Up" style="text;html=1;strokeColor=none;fillColor=none;align=center;verticalAlign=middle;whiteSpace=wrap;rounded=0;fontStyle=5" parent="C56a6i_gi8Y1no2JAwIi-24" vertex="1">
          <mxGeometry x="14" y="11" width="60" height="30" as="geometry" />
        </mxCell>
        <mxCell id="C56a6i_gi8Y1no2JAwIi-26" value="username" style="rounded=1;whiteSpace=wrap;html=1;" parent="C56a6i_gi8Y1no2JAwIi-24" vertex="1">
          <mxGeometry x="14" y="44" width="100" height="18" as="geometry" />
        </mxCell>
        <mxCell id="C56a6i_gi8Y1no2JAwIi-27" value="password" style="rounded=1;whiteSpace=wrap;html=1;" parent="C56a6i_gi8Y1no2JAwIi-24" vertex="1">
          <mxGeometry x="14" y="74" width="100" height="18" as="geometry" />
        </mxCell>
        <mxCell id="C56a6i_gi8Y1no2JAwIi-28" value="create Account" style="shape=step;perimeter=stepPerimeter;whiteSpace=wrap;html=1;fixedSize=1;" parent="C56a6i_gi8Y1no2JAwIi-24" vertex="1">
          <mxGeometry x="14" y="104" width="131" height="18" as="geometry" />
        </mxCell>
        <mxCell id="C56a6i_gi8Y1no2JAwIi-29" style="edgeStyle=orthogonalEdgeStyle;rounded=0;orthogonalLoop=1;jettySize=auto;html=1;exitX=1;exitY=0.5;exitDx=0;exitDy=0;entryX=0;entryY=0.5;entryDx=0;entryDy=0;" parent="1" source="C56a6i_gi8Y1no2JAwIi-30" target="C56a6i_gi8Y1no2JAwIi-24" edge="1">
          <mxGeometry relative="1" as="geometry" />
        </mxCell>
        <mxCell id="C56a6i_gi8Y1no2JAwIi-30" value="render_template(&#39;signup.html&#39;)" style="rounded=0;whiteSpace=wrap;html=1;" parent="1" vertex="1">
          <mxGeometry x="32" y="647" width="173" height="60" as="geometry" />
        </mxCell>
        <mxCell id="C56a6i_gi8Y1no2JAwIi-31" style="edgeStyle=orthogonalEdgeStyle;rounded=0;orthogonalLoop=1;jettySize=auto;html=1;exitX=0.855;exitY=0;exitDx=0;exitDy=4.35;exitPerimeter=0;entryX=0.5;entryY=1;entryDx=0;entryDy=0;" parent="1" source="C56a6i_gi8Y1no2JAwIi-32" target="C56a6i_gi8Y1no2JAwIi-37" edge="1">
          <mxGeometry relative="1" as="geometry">
            <Array as="points">
              <mxPoint x="660" y="356" />
            </Array>
          </mxGeometry>
        </mxCell>
        <mxCell id="C56a6i_gi8Y1no2JAwIi-32" value="db" style="shape=cylinder3;whiteSpace=wrap;html=1;boundedLbl=1;backgroundOutline=1;size=15;" parent="1" vertex="1">
          <mxGeometry x="587" y="352" width="60" height="80" as="geometry" />
        </mxCell>
        <mxCell id="C56a6i_gi8Y1no2JAwIi-33" style="edgeStyle=orthogonalEdgeStyle;rounded=0;orthogonalLoop=1;jettySize=auto;html=1;exitX=0;exitY=1;exitDx=0;exitDy=0;entryX=0.145;entryY=0;entryDx=0;entryDy=4.35;entryPerimeter=0;" parent="1" source="C56a6i_gi8Y1no2JAwIi-37" target="C56a6i_gi8Y1no2JAwIi-32" edge="1">
          <mxGeometry relative="1" as="geometry">
            <Array as="points">
              <mxPoint x="596" y="169" />
            </Array>
          </mxGeometry>
        </mxCell>
        <mxCell id="C56a6i_gi8Y1no2JAwIi-34" value="False" style="edgeStyle=orthogonalEdgeStyle;rounded=0;orthogonalLoop=1;jettySize=auto;html=1;exitX=0.5;exitY=0;exitDx=0;exitDy=0;entryX=0.75;entryY=0;entryDx=0;entryDy=0;" parent="1" source="C56a6i_gi8Y1no2JAwIi-37" target="C56a6i_gi8Y1no2JAwIi-7" edge="1">
          <mxGeometry relative="1" as="geometry">
            <Array as="points">
              <mxPoint x="660" y="110" />
              <mxPoint x="361" y="110" />
            </Array>
          </mxGeometry>
        </mxCell>
        <mxCell id="C56a6i_gi8Y1no2JAwIi-35" value="True" style="edgeStyle=orthogonalEdgeStyle;rounded=0;orthogonalLoop=1;jettySize=auto;html=1;exitX=1;exitY=0.5;exitDx=0;exitDy=0;entryX=0;entryY=0.5;entryDx=0;entryDy=0;" parent="1" source="C56a6i_gi8Y1no2JAwIi-37" target="C56a6i_gi8Y1no2JAwIi-38" edge="1">
          <mxGeometry relative="1" as="geometry" />
        </mxCell>
        <mxCell id="C56a6i_gi8Y1no2JAwIi-36" value="True" style="edgeStyle=orthogonalEdgeStyle;rounded=0;orthogonalLoop=1;jettySize=auto;html=1;exitX=1;exitY=0.5;exitDx=0;exitDy=0;entryX=0;entryY=0.5;entryDx=0;entryDy=0;" parent="1" source="C56a6i_gi8Y1no2JAwIi-37" target="C56a6i_gi8Y1no2JAwIi-40" edge="1">
          <mxGeometry relative="1" as="geometry">
            <Array as="points">
              <mxPoint x="751" y="61" />
            </Array>
          </mxGeometry>
        </mxCell>
        <mxCell id="C56a6i_gi8Y1no2JAwIi-37" value="if username == [db] and password == [db]" style="rhombus;whiteSpace=wrap;html=1;" parent="1" vertex="1">
          <mxGeometry x="569" y="60" width="182" height="145" as="geometry" />
        </mxCell>
        <mxCell id="C56a6i_gi8Y1no2JAwIi-43" style="edgeStyle=orthogonalEdgeStyle;rounded=0;orthogonalLoop=1;jettySize=auto;html=1;exitX=0.5;exitY=1;exitDx=0;exitDy=0;entryX=0.5;entryY=0;entryDx=0;entryDy=0;" parent="1" source="C56a6i_gi8Y1no2JAwIi-38" target="C56a6i_gi8Y1no2JAwIi-41" edge="1">
          <mxGeometry relative="1" as="geometry" />
        </mxCell>
        <mxCell id="C56a6i_gi8Y1no2JAwIi-38" value="redirect(render_template(panel.html))" style="rounded=0;whiteSpace=wrap;html=1;" parent="1" vertex="1">
          <mxGeometry x="822" y="102.5" width="220" height="60" as="geometry" />
        </mxCell>
        <mxCell id="C56a6i_gi8Y1no2JAwIi-39" value="comparison with db" style="text;html=1;strokeColor=none;fillColor=none;align=center;verticalAlign=middle;whiteSpace=wrap;rounded=0;" parent="1" vertex="1">
          <mxGeometry x="597" y="228" width="60" height="30" as="geometry" />
        </mxCell>
        <mxCell id="C56a6i_gi8Y1no2JAwIi-40" value="start new session" style="rounded=0;whiteSpace=wrap;html=1;" parent="1" vertex="1">
          <mxGeometry x="822" y="31" width="120" height="60" as="geometry" />
        </mxCell>
        <mxCell id="C56a6i_gi8Y1no2JAwIi-41" value="" style="swimlane;startSize=0;" parent="1" vertex="1">
          <mxGeometry x="832" y="240" width="200" height="137" as="geometry" />
        </mxCell>
        <mxCell id="C56a6i_gi8Y1no2JAwIi-42" value="Panel" style="text;html=1;align=center;verticalAlign=middle;resizable=0;points=[];autosize=1;strokeColor=none;fillColor=none;fontStyle=5" parent="C56a6i_gi8Y1no2JAwIi-41" vertex="1">
          <mxGeometry x="20" y="11" width="50" height="26" as="geometry" />
        </mxCell>
        <mxCell id="C56a6i_gi8Y1no2JAwIi-44" value="Slider" style="text;html=1;strokeColor=none;fillColor=none;align=center;verticalAlign=middle;whiteSpace=wrap;rounded=0;" parent="C56a6i_gi8Y1no2JAwIi-41" vertex="1">
          <mxGeometry x="26" y="38" width="60" height="30" as="geometry" />
        </mxCell>
        <mxCell id="C56a6i_gi8Y1no2JAwIi-45" value="Slider-Config" style="text;html=1;strokeColor=none;fillColor=none;align=center;verticalAlign=middle;whiteSpace=wrap;rounded=0;" parent="C56a6i_gi8Y1no2JAwIi-41" vertex="1">
          <mxGeometry x="26" y="67" width="75" height="30" as="geometry" />
        </mxCell>
        <mxCell id="C56a6i_gi8Y1no2JAwIi-46" value="Account-Config" style="text;html=1;strokeColor=none;fillColor=none;align=center;verticalAlign=middle;whiteSpace=wrap;rounded=0;" parent="C56a6i_gi8Y1no2JAwIi-41" vertex="1">
          <mxGeometry x="26" y="100" width="87" height="30" as="geometry" />
        </mxCell>
        <mxCell id="C56a6i_gi8Y1no2JAwIi-48" style="edgeStyle=orthogonalEdgeStyle;rounded=0;orthogonalLoop=1;jettySize=auto;html=1;exitX=0;exitY=0.5;exitDx=0;exitDy=0;entryX=1;entryY=0;entryDx=0;entryDy=52.5;entryPerimeter=0;" parent="1" source="C56a6i_gi8Y1no2JAwIi-47" target="C56a6i_gi8Y1no2JAwIi-32" edge="1">
          <mxGeometry relative="1" as="geometry">
            <Array as="points">
              <mxPoint x="679" y="405" />
              <mxPoint x="647" y="405" />
            </Array>
          </mxGeometry>
        </mxCell>
        <mxCell id="C56a6i_gi8Y1no2JAwIi-47" value="SQLite3 client in Browser" style="rounded=0;whiteSpace=wrap;html=1;" parent="1" vertex="1">
          <mxGeometry x="679" y="372" width="120" height="60" as="geometry" />
        </mxCell>
        <mxCell id="C56a6i_gi8Y1no2JAwIi-49" style="edgeStyle=orthogonalEdgeStyle;rounded=0;orthogonalLoop=1;jettySize=auto;html=1;exitX=0;exitY=0.5;exitDx=0;exitDy=0;entryX=1;entryY=0.5;entryDx=0;entryDy=0;" parent="1" source="C56a6i_gi8Y1no2JAwIi-46" target="C56a6i_gi8Y1no2JAwIi-47" edge="1">
          <mxGeometry relative="1" as="geometry">
            <Array as="points">
              <mxPoint x="822" y="355" />
              <mxPoint x="822" y="402" />
            </Array>
          </mxGeometry>
        </mxCell>
        <mxCell id="C56a6i_gi8Y1no2JAwIi-50" value="redirect(render_template(&#39;slider.html&#39;)" style="rounded=0;whiteSpace=wrap;html=1;" parent="1" vertex="1">
          <mxGeometry x="932" y="595" width="232" height="60" as="geometry" />
        </mxCell>
        <mxCell id="C56a6i_gi8Y1no2JAwIi-51" style="edgeStyle=orthogonalEdgeStyle;rounded=0;orthogonalLoop=1;jettySize=auto;html=1;exitX=1;exitY=0.5;exitDx=0;exitDy=0;entryX=0.75;entryY=0;entryDx=0;entryDy=0;" parent="1" source="C56a6i_gi8Y1no2JAwIi-44" target="C56a6i_gi8Y1no2JAwIi-50" edge="1">
          <mxGeometry relative="1" as="geometry" />
        </mxCell>
        <mxCell id="C56a6i_gi8Y1no2JAwIi-73" style="edgeStyle=orthogonalEdgeStyle;rounded=0;orthogonalLoop=1;jettySize=auto;html=1;exitX=1;exitY=0.5;exitDx=0;exitDy=0;entryX=0;entryY=0.25;entryDx=0;entryDy=0;" parent="1" source="C56a6i_gi8Y1no2JAwIi-52" target="C56a6i_gi8Y1no2JAwIi-50" edge="1">
          <mxGeometry relative="1" as="geometry" />
        </mxCell>
        <mxCell id="C56a6i_gi8Y1no2JAwIi-52" value="" style="swimlane;startSize=0;" parent="1" vertex="1">
          <mxGeometry x="544" y="496" width="225" height="294" as="geometry" />
        </mxCell>
        <mxCell id="C56a6i_gi8Y1no2JAwIi-57" value="duration in seconds" style="rounded=1;whiteSpace=wrap;html=1;" parent="C56a6i_gi8Y1no2JAwIi-52" vertex="1">
          <mxGeometry x="12" y="46" width="112" height="15" as="geometry" />
        </mxCell>
        <mxCell id="C56a6i_gi8Y1no2JAwIi-58" value="Media" style="text;html=1;strokeColor=none;fillColor=none;align=center;verticalAlign=middle;whiteSpace=wrap;rounded=0;fontStyle=1" parent="C56a6i_gi8Y1no2JAwIi-52" vertex="1">
          <mxGeometry y="72" width="60" height="30" as="geometry" />
        </mxCell>
        <mxCell id="C56a6i_gi8Y1no2JAwIi-59" value="= lol.png" style="text;strokeColor=none;fillColor=none;align=left;verticalAlign=middle;spacingLeft=4;spacingRight=4;overflow=hidden;points=[[0,0.5],[1,0.5]];portConstraint=eastwest;rotatable=0;whiteSpace=wrap;html=1;" parent="C56a6i_gi8Y1no2JAwIi-52" vertex="1">
          <mxGeometry x="6" y="98" width="80" height="30" as="geometry" />
        </mxCell>
        <mxCell id="C56a6i_gi8Y1no2JAwIi-60" value="= msg.jpg" style="text;strokeColor=none;fillColor=none;align=left;verticalAlign=middle;spacingLeft=4;spacingRight=4;overflow=hidden;points=[[0,0.5],[1,0.5]];portConstraint=eastwest;rotatable=0;whiteSpace=wrap;html=1;" parent="C56a6i_gi8Y1no2JAwIi-52" vertex="1">
          <mxGeometry x="6" y="126" width="80" height="30" as="geometry" />
        </mxCell>
        <mxCell id="C56a6i_gi8Y1no2JAwIi-61" value="" style="rounded=0;whiteSpace=wrap;html=1;" parent="C56a6i_gi8Y1no2JAwIi-52" vertex="1">
          <mxGeometry x="6" y="165" width="199" height="3" as="geometry" />
        </mxCell>
        <mxCell id="C56a6i_gi8Y1no2JAwIi-62" value="Upload" style="text;html=1;strokeColor=none;fillColor=none;align=center;verticalAlign=middle;whiteSpace=wrap;rounded=0;fontStyle=1" parent="C56a6i_gi8Y1no2JAwIi-52" vertex="1">
          <mxGeometry x="3" y="171" width="58" height="21" as="geometry" />
        </mxCell>
        <mxCell id="C56a6i_gi8Y1no2JAwIi-63" value="test.jpeg" style="rounded=1;whiteSpace=wrap;html=1;" parent="C56a6i_gi8Y1no2JAwIi-52" vertex="1">
          <mxGeometry x="6" y="205" width="92" height="21" as="geometry" />
        </mxCell>
        <mxCell id="C56a6i_gi8Y1no2JAwIi-64" value="upload" style="rounded=0;whiteSpace=wrap;html=1;" parent="C56a6i_gi8Y1no2JAwIi-52" vertex="1">
          <mxGeometry x="112" y="208.5" width="46" height="14" as="geometry" />
        </mxCell>
        <mxCell id="VmFQa-b0vIb0UdpKvtnL-1" value="save settings" style="rounded=0;whiteSpace=wrap;html=1;" vertex="1" parent="C56a6i_gi8Y1no2JAwIi-52">
          <mxGeometry x="70.5" y="252" width="84" height="30" as="geometry" />
        </mxCell>
        <mxCell id="C56a6i_gi8Y1no2JAwIi-55" style="edgeStyle=orthogonalEdgeStyle;rounded=0;orthogonalLoop=1;jettySize=auto;html=1;exitX=0;exitY=0.5;exitDx=0;exitDy=0;entryX=1;entryY=0.25;entryDx=0;entryDy=0;" parent="1" source="C56a6i_gi8Y1no2JAwIi-53" target="C56a6i_gi8Y1no2JAwIi-52" edge="1">
          <mxGeometry relative="1" as="geometry" />
        </mxCell>
        <mxCell id="C56a6i_gi8Y1no2JAwIi-53" value="render_template(&quot;config.html&quot;)" style="rounded=0;whiteSpace=wrap;html=1;" parent="1" vertex="1">
          <mxGeometry x="838" y="492" width="170" height="60" as="geometry" />
        </mxCell>
        <mxCell id="C56a6i_gi8Y1no2JAwIi-54" style="edgeStyle=orthogonalEdgeStyle;rounded=0;orthogonalLoop=1;jettySize=auto;html=1;exitX=1;exitY=0.5;exitDx=0;exitDy=0;entryX=1;entryY=0.5;entryDx=0;entryDy=0;" parent="1" source="C56a6i_gi8Y1no2JAwIi-45" target="C56a6i_gi8Y1no2JAwIi-53" edge="1">
          <mxGeometry relative="1" as="geometry">
            <Array as="points">
              <mxPoint x="1055" y="322" />
              <mxPoint x="1055" y="522" />
            </Array>
          </mxGeometry>
        </mxCell>
        <mxCell id="C56a6i_gi8Y1no2JAwIi-56" value="Config" style="text;html=1;strokeColor=none;fillColor=none;align=center;verticalAlign=middle;whiteSpace=wrap;rounded=0;fontStyle=5" parent="1" vertex="1">
          <mxGeometry x="577" y="507" width="60" height="30" as="geometry" />
        </mxCell>
        <mxCell id="C56a6i_gi8Y1no2JAwIi-70" style="edgeStyle=orthogonalEdgeStyle;rounded=0;orthogonalLoop=1;jettySize=auto;html=1;exitX=0.5;exitY=0;exitDx=0;exitDy=0;entryX=0;entryY=0.5;entryDx=0;entryDy=0;shape=link;" parent="1" source="C56a6i_gi8Y1no2JAwIi-66" target="C56a6i_gi8Y1no2JAwIi-50" edge="1">
          <mxGeometry relative="1" as="geometry" />
        </mxCell>
        <mxCell id="C56a6i_gi8Y1no2JAwIi-75" style="edgeStyle=orthogonalEdgeStyle;rounded=0;orthogonalLoop=1;jettySize=auto;html=1;exitX=0;exitY=0.5;exitDx=0;exitDy=0;entryX=1;entryY=0.75;entryDx=0;entryDy=0;shape=link;" parent="1" source="C56a6i_gi8Y1no2JAwIi-66" target="C56a6i_gi8Y1no2JAwIi-52" edge="1">
          <mxGeometry relative="1" as="geometry" />
        </mxCell>
        <mxCell id="C56a6i_gi8Y1no2JAwIi-66" value="dir: /uploads" style="rounded=0;whiteSpace=wrap;html=1;" parent="1" vertex="1">
          <mxGeometry x="802" y="649" width="120" height="60" as="geometry" />
        </mxCell>
        <mxCell id="C56a6i_gi8Y1no2JAwIi-72" style="edgeStyle=orthogonalEdgeStyle;rounded=0;orthogonalLoop=1;jettySize=auto;html=1;exitX=0.5;exitY=0;exitDx=0;exitDy=0;shape=link;" parent="1" source="C56a6i_gi8Y1no2JAwIi-71" target="C56a6i_gi8Y1no2JAwIi-50" edge="1">
          <mxGeometry relative="1" as="geometry" />
        </mxCell>
        <mxCell id="C56a6i_gi8Y1no2JAwIi-71" value="Js for the slider" style="rounded=0;whiteSpace=wrap;html=1;" parent="1" vertex="1">
          <mxGeometry x="989" y="705" width="120" height="60" as="geometry" />
        </mxCell>
      </root>
    </mxGraphModel>
  </diagram>
  <diagram id="GfprHurIeaiKHaurYsjD" name="db">
    <mxGraphModel dx="794" dy="547" grid="0" gridSize="10" guides="1" tooltips="1" connect="1" arrows="1" fold="1" page="1" pageScale="1" pageWidth="1169" pageHeight="827" math="0" shadow="0">
      <root>
        <mxCell id="0" />
        <mxCell id="1" parent="0" />
        <mxCell id="EPs5zOs8eW6eiMuHtLsd-2" value="Table" style="shape=table;startSize=30;container=1;collapsible=0;childLayout=tableLayout;" vertex="1" parent="1">
          <mxGeometry x="43" y="144" width="353" height="70" as="geometry" />
        </mxCell>
        <mxCell id="EPs5zOs8eW6eiMuHtLsd-3" value="" style="shape=tableRow;horizontal=0;startSize=0;swimlaneHead=0;swimlaneBody=0;strokeColor=inherit;top=0;left=0;bottom=0;right=0;collapsible=0;dropTarget=0;fillColor=none;points=[[0,0.5],[1,0.5]];portConstraint=eastwest;" vertex="1" parent="EPs5zOs8eW6eiMuHtLsd-2">
          <mxGeometry y="30" width="353" height="40" as="geometry" />
        </mxCell>
        <mxCell id="EPs5zOs8eW6eiMuHtLsd-4" value="id INTEGER" style="shape=partialRectangle;html=1;whiteSpace=wrap;connectable=0;strokeColor=inherit;overflow=hidden;fillColor=none;top=0;left=0;bottom=0;right=0;pointerEvents=1;" vertex="1" parent="EPs5zOs8eW6eiMuHtLsd-3">
          <mxGeometry width="118" height="40" as="geometry">
            <mxRectangle width="118" height="40" as="alternateBounds" />
          </mxGeometry>
        </mxCell>
        <mxCell id="EPs5zOs8eW6eiMuHtLsd-5" value="username TEXT" style="shape=partialRectangle;html=1;whiteSpace=wrap;connectable=0;strokeColor=inherit;overflow=hidden;fillColor=none;top=0;left=0;bottom=0;right=0;pointerEvents=1;" vertex="1" parent="EPs5zOs8eW6eiMuHtLsd-3">
          <mxGeometry x="118" width="117" height="40" as="geometry">
            <mxRectangle width="117" height="40" as="alternateBounds" />
          </mxGeometry>
        </mxCell>
        <mxCell id="EPs5zOs8eW6eiMuHtLsd-6" value="password " style="shape=partialRectangle;html=1;whiteSpace=wrap;connectable=0;strokeColor=inherit;overflow=hidden;fillColor=none;top=0;left=0;bottom=0;right=0;pointerEvents=1;" vertex="1" parent="EPs5zOs8eW6eiMuHtLsd-3">
          <mxGeometry x="235" width="118" height="40" as="geometry">
            <mxRectangle width="118" height="40" as="alternateBounds" />
          </mxGeometry>
        </mxCell>
        <mxCell id="EPs5zOs8eW6eiMuHtLsd-7" value="Database structure" style="text;strokeColor=none;fillColor=none;html=1;fontSize=24;fontStyle=1;verticalAlign=middle;align=center;" vertex="1" parent="1">
          <mxGeometry x="43" y="42" width="242" height="40" as="geometry" />
        </mxCell>
      </root>
    </mxGraphModel>
  </diagram>
</mxfile>
